<svg xmlns="http://www.w3.org/2000/svg" version="1.1" xmlns:xlink="http://www.w3.org/1999/xlink" xmlns:svgjs="http://svgjs.dev/svgjs" width="2000" height="398" viewBox="0 0 2000 398"><g transform="matrix(1,0,0,1,-1.2121212121212466,-0.4785683289713347)"><svg viewBox="0 0 396 79" data-background-color="#111111" preserveAspectRatio="xMidYMid meet" height="398" width="2000" xmlns="http://www.w3.org/2000/svg" xmlns:xlink="http://www.w3.org/1999/xlink"><g id="tight-bounds" transform="matrix(1,0,0,1,0.2400000000000091,0.09499220600184799)"><svg viewBox="0 0 395.52 78.8100155879963" height="78.8100155879963" width="395.52"><g><svg viewBox="0 0 490.5934134385389 97.75403155455999" height="78.8100155879963" width="395.52"><g transform="matrix(1,0,0,1,95.07341343853892,6.26632777727999)"><svg viewBox="0 0 395.52 85.221376" height="85.221376" width="395.52"><g id="textblocktransform"><svg viewBox="0 0 395.52 85.221376" height="85.221376" width="395.52" id="textblock"><g><svg viewBox="0 0 395.52 85.221376" height="85.221376" width="395.52"><g transform="matrix(1,0,0,1,0,0)"><svg width="395.52" viewBox="4 -39.95 187.49 40.400000000000006" height="85.221376" data-palette-color="#000000"><path d="M13.3-22.85L22.95-22.85Q24.25-22.85 25.65-22.3 27.05-21.75 28.35-20.85L28.35-20.85 28.3-20.85Q29.6-19.95 30.3-18.4 31-16.85 31-14.85L31-14.85 31-8Q31-3.95 28.3-1.95L28.3-1.95Q27-1 25.63-0.48 24.25 0.05 22.95 0.05L22.95 0.05 12.05 0.05Q10.75 0.05 9.38-0.48 8-1 6.7-1.95L6.7-1.95Q4-3.95 4-8L4-8 4-11.3Q4-13.65 6.95-13.65L6.95-13.65Q9.95-13.65 9.95-11.3L9.95-11.3 9.95-8.4Q9.95-7.1 10.7-6.05 11.45-5 13.3-5L13.3-5 21.7-5Q23.55-5 24.3-6.05 25.05-7.1 25.05-8.4L25.05-8.4 25.05-14.45Q25.05-15.7 24.3-16.78 23.55-17.85 21.7-17.85L21.7-17.85 12.05-17.85Q9.45-17.85 6.7-19.75L6.7-19.75Q4-21.85 4-25.8L4-25.8 4-31.75Q4-33.75 4.7-35.27 5.4-36.8 6.7-37.75L6.7-37.75 6.65-37.75Q7.95-38.6 9.35-39.15 10.75-39.7 12.05-39.7L12.05-39.7 22.95-39.7Q24.25-39.7 25.65-39.15 27.05-38.6 28.35-37.75L28.35-37.75 28.3-37.75Q29.6-36.8 30.3-35.27 31-33.75 31-31.75L31-31.75 31-28.8Q31-26.45 28-26.45L28-26.45Q25.05-26.45 25.05-28.8L25.05-28.8 25.05-31.3Q25.05-32.55 24.3-33.6 23.55-34.65 21.7-34.65L21.7-34.65 13.3-34.65Q11.45-34.65 10.7-33.6 9.95-32.55 9.95-31.3L9.95-31.3 9.95-26.2Q9.95-24.9 10.7-23.88 11.45-22.85 13.3-22.85L13.3-22.85ZM62.45-28L62.45-7.95Q62.45-5.95 61.75-4.4 61.05-2.85 59.75-1.9L59.75-1.9 59.8-1.9Q58.55-1.05 57.15-0.53 55.75 0 54.45 0L54.45 0 46.4 0Q45.15 0 43.72-0.53 42.3-1.05 41.05-1.9L41.05-1.9 41.1-1.9Q39.8-2.85 39.1-4.4 38.4-5.95 38.4-7.95L38.4-7.95 38.4-28Q38.4-30.4 41.15-30.4L41.15-30.4Q43.9-30.4 43.9-28L43.9-28 43.9-8.35Q43.9-6.95 44.6-5.9L44.6-5.9Q45.25-4.7 47.3-4.7L47.3-4.7 53.55-4.7Q55.55-4.7 56.2-5.9L56.2-5.9 56.15-5.85Q56.95-7.05 56.95-8.35L56.95-8.35 56.95-28Q56.95-30.4 59.7-30.4L59.7-30.4Q62.45-30.4 62.45-28L62.45-28ZM84.2-1.95L84.2-21.75Q84.2-22.4 84-23.03 83.8-23.65 83.5-24.2L83.5-24.2Q82.85-25.4 80.8-25.4L80.8-25.4 77.6-25.4Q75.55-25.4 74.85-24.2L74.85-24.2Q74.25-23.05 74.25-21.75L74.25-21.75 74.25-1.95Q74.25 0.4 71.5 0.4L71.5 0.4Q68.65 0.4 68.65-1.95L68.65-1.95 68.65-22.2Q68.65-26.3 71.35-28.2L71.35-28.2Q74.1-30.1 76.7-30.1L76.7-30.1 81.75-30.1Q82.9-30.1 84.3-29.65 85.7-29.2 87-28.25L87-28.25Q88.25-29.2 89.62-29.65 91-30.1 92.25-30.1L92.25-30.1 97.25-30.1Q99.9-30.1 102.55-28.2L102.55-28.2Q105.3-26.35 105.3-22.2L105.3-22.2 105.3-1.95Q105.3 0.4 102.5 0.4L102.5 0.4Q99.7 0.4 99.7-1.95L99.7-1.95 99.7-21.75Q99.7-22.4 99.55-23.05 99.4-23.7 99-24.25L99-24.25 99.05-24.2Q98.65-24.85 98.05-25.13 97.45-25.4 96.3-25.4L96.3-25.4 93.15-25.4Q91.05-25.4 90.4-24.2L90.4-24.2Q89.75-23.1 89.75-21.75L89.75-21.75 89.75-1.95Q89.75 0.4 87 0.4L87 0.4Q84.2 0.4 84.2-1.95L84.2-1.95ZM124.64-25.4L111.04-25.4Q109.24-25.4 109.14-27.75L109.14-27.75Q109.14-30.1 111.04-30.1L111.04-30.1 128.39-30.1Q129.99-30.1 130.92-29.58 131.84-29.05 131.94-28.15L131.94-28.15Q131.99-27.35 131.92-26.55 131.84-25.75 131.54-25.35L131.54-25.35 116.19-4.7 130.34-4.7Q132.14-4.7 132.14-2.35L132.14-2.35Q132.24-1.15 131.74-0.58 131.24 0 130.34 0L130.34 0 112.39 0Q109.14 0 108.89-1.9L108.89-1.9Q108.74-3.65 109.24-4.75L109.24-4.75 124.64-25.4ZM143.99-4.1L143.99-4.1Q143.99-2.4 142.84-1.23 141.69-0.05 139.99-0.05L139.99-0.05Q138.29-0.05 137.14-1.23 135.99-2.4 135.99-4.1L135.99-4.1Q135.99-5.75 137.14-6.93 138.29-8.1 139.99-8.1L139.99-8.1Q141.69-8.1 142.84-6.93 143.99-5.75 143.99-4.1ZM175.19-1.2L164.19-34.8 153.24-1.2 153.24-1.25Q152.94-0.5 152.41-0.03 151.89 0.45 151.14 0.45L151.14 0.45Q150.74 0.45 150.36 0.38 149.99 0.3 149.59 0.2L149.59 0.2 149.64 0.2Q146.79-0.7 147.54-3L147.54-3 158.94-37.65Q159.19-38.45 159.81-39 160.44-39.55 161.29-39.65L161.29-39.65Q162.14-39.8 162.94-39.88 163.74-39.95 164.19-39.95L164.19-39.95Q164.64-39.95 165.44-39.88 166.24-39.8 167.09-39.7L167.09-39.7Q167.79-39.6 168.46-38.95 169.14-38.3 169.49-37.65L169.49-37.65Q172.29-29.05 175.16-20.33 178.04-11.6 180.84-3L180.84-3Q181.54-0.7 178.74 0.2L178.74 0.2Q178.34 0.3 178.01 0.38 177.69 0.45 177.29 0.45L177.29 0.45Q176.59 0.45 176.01-0.03 175.44-0.5 175.19-1.25L175.19-1.25 175.19-1.2ZM167.94-12L167.94-12Q167.94-10.4 166.81-9.28 165.69-8.15 164.09-8.15L164.09-8.15Q162.49-8.15 161.39-9.28 160.29-10.4 160.29-12L160.29-12Q160.29-13.6 161.39-14.73 162.49-15.85 164.09-15.85L164.09-15.85Q165.69-15.85 166.81-14.73 167.94-13.6 167.94-12ZM191.49-37.55L191.49-2.1Q191.49 0.3 188.49 0.3L188.49 0.3Q185.54 0.3 185.54-2.1L185.54-2.1 185.54-37.55Q185.54-39.95 188.49-39.95L188.49-39.95Q191.49-39.95 191.49-37.55L191.49-37.55Z" opacity="1" transform="matrix(1,0,0,1,0,0)" fill="#000000" class="wordmark-text-0" data-fill-palette-color="primary" id="text-0"></path></svg></g></svg></g></svg></g></svg></g><g><svg viewBox="0 0 74.95469187796292 97.75403155455999" height="97.75403155455999" width="74.95469187796292"><g><svg xmlns="http://www.w3.org/2000/svg" xmlns:xlink="http://www.w3.org/1999/xlink" version="1.1" x="0" y="0" viewBox="23.563 14 62.875 82" enable-background="new 0 0 110 110" xml:space="preserve" height="97.75403155455999" width="74.95469187796292" class="icon-icon-0" data-fill-palette-color="accent" id="icon-0"><polygon points="23.563,14 86.438,14 86.438,32.688 76.25,19.709 42.063,19.75 65.813,50.5 42.063,83.313 42.063,86.938   76.875,86.938 86.438,78.813 86.438,96 23.563,96 23.563,91.25 50.625,55.266 23.563,17.344 " fill="#58f20c" data-fill-palette-color="accent"></polygon></svg></g></svg></g></svg></g><defs></defs></svg><rect width="395.52" height="78.8100155879963" fill="none" stroke="none" visibility="hidden"></rect></g></svg></g></svg>